<?xml version="1.0" encoding="UTF-8"?>
<svg id="Capa_1_copia_18" data-name="Capa 1 copia 18" xmlns="http://www.w3.org/2000/svg" viewBox="0 0 276.73 256">
  <defs>
    <style>
      .cls-1 {
        fill: #fff;
      }
    </style>
  </defs>
  <polyline class="cls-1" points="146.63 127.84 151.78 127.84 151.83 121.93 130.86 81.36 125.38 81.43"/>
  <polygon class="cls-1" points="130.87 81.45 125.38 81.43 105.36 122.24 105.36 127.87 111.06 127.8 130.87 81.45"/>
  <rect class="cls-1" x="162.91" y="81.41" width="5.54" height="46.41"/>
  <rect class="cls-1" x="177.98" y="81.41" width="5.54" height="46.41"/>
  <rect class="cls-1" x="192.91" y="81.41" width="5.54" height="46.41"/>
  <rect class="cls-1" x="177.81" y="81.41" width="5.54" height="46.41" transform="translate(75.58 284.97) rotate(-89.88)"/>
  <rect class="cls-1" x="229.9" y="81.45" width="5.54" height="46.41"/>
  <rect class="cls-1" x="229.73" y="81.45" width="5.54" height="46.41" transform="translate(127.36 336.93) rotate(-89.88)"/>
  <rect class="cls-1" x="125.8" y="133.57" width="5.54" height="46.41" transform="translate(-28.47 285.01) rotate(-89.88)"/>
  <rect class="cls-1" x="125.86" y="148.32" width="5.54" height="46.41" transform="translate(-43.17 299.78) rotate(-89.88)"/>
  <rect class="cls-1" x="125.8" y="118.82" width="5.54" height="46.41" transform="translate(-13.72 270.29) rotate(-89.88)"/>
  <polyline class="cls-1" points="198.78 180 203.93 180 203.98 174.08 183.01 133.52 177.53 133.59"/>
  <polygon class="cls-1" points="183.02 133.61 177.53 133.59 157.51 174.4 157.51 180.02 163.21 179.96 183.02 133.61"/>
  <polyline class="cls-1" points="209.58 174.32 209.52 179.94 215.15 180 256.27 159.57 256.27 154.09 209.67 174.33"/>
  <polygon class="cls-1" points="256.18 159.57 256.18 154.02 215.45 133.53 209.92 133.51 209.91 139.07 256.18 159.57"/>
  <polyline class="cls-1" points="99.5 93.42 99.63 81.49 87.68 81.36 .42 124.71 .42 136.34 99.32 93.38"/>
  <polygon class="cls-1" points=".62 124.71 .62 136.49 87.04 179.98 98.78 180.01 98.81 168.22 .62 124.71"/>
</svg>