<?xml version="1.0" encoding="UTF-8"?><svg id="_4th" xmlns="http://www.w3.org/2000/svg" viewBox="0 0 276.73 256"><defs><style>.cls-1{fill:#fff;}</style></defs><g id="logo-sm"><polyline class="cls-1" points="107.19 121.14 120.46 121.14 120.6 105.88 66.5 1.22 52.36 1.41"/><polygon class="cls-1" points="66.5 1.47 52.36 1.41 .7 106.7 .7 121.21 15.39 121.05 66.5 1.47"/><rect class="cls-1" x="149.17" y="1.45" width="14.28" height="119.73"/><rect class="cls-1" x="188.06" y="15.94" width="14.28" height="91.27"/><rect class="cls-1" x="226.58" y="1.45" width="14.28" height="119.73"/><rect class="cls-1" x="187.62" y="1.35" width="14.28" height="119.73" transform="translate(133.14 255.85) rotate(-89.88)"/><rect class="cls-1" x="53.43" y="135.92" width="14.28" height="119.73" transform="translate(-135.33 255.95) rotate(-89.88)"/><rect class="cls-1" x="53.58" y="173.98" width="14.28" height="119.73" transform="translate(-173.25 294.07) rotate(-89.88)"/><rect class="cls-1" x="53.43" y="97.86" width="14.28" height="119.73" transform="translate(-97.28 217.97) rotate(-89.88)"/><polyline class="cls-1" points="241.74 255.7 255.01 255.7 255.15 240.45 201.05 135.79 186.9 135.98"/><polygon class="cls-1" points="201.05 136.03 186.9 135.98 135.24 241.26 135.24 255.78 149.94 255.61 201.05 136.03"/></g></svg>