<?xml version="1.0" encoding="UTF-8"?>
<svg id="Capa_9_copia" data-name="Capa 9 copia" xmlns="http://www.w3.org/2000/svg" xmlns:xlink="http://www.w3.org/1999/xlink" viewBox="0 0 347 273">
  <defs>
    <style>
      .cls-1 {
        fill: url(#Degradado_sin_nombre_34-5);
      }

      .cls-2 {
        fill: url(#Degradado_sin_nombre_34-7);
      }

      .cls-3 {
        fill: url(#Degradado_sin_nombre_34-6);
      }

      .cls-4 {
        fill: url(#Degradado_sin_nombre_34-8);
      }

      .cls-5 {
        fill: url(#Degradado_sin_nombre_34-3);
      }

      .cls-6 {
        fill: url(#Degradado_sin_nombre_34);
      }

      .cls-7 {
        fill: url(#Degradado_sin_nombre_34-10);
      }

      .cls-8 {
        fill: url(#Degradado_sin_nombre_34-4);
      }

      .cls-9 {
        fill: url(#Degradado_sin_nombre_34-2);
      }

      .cls-10 {
        fill: url(#Degradado_sin_nombre_34-13);
      }

      .cls-11 {
        fill: url(#Degradado_sin_nombre_34-11);
      }

      .cls-12 {
        fill: url(#Degradado_sin_nombre_34-9);
      }

      .cls-13 {
        fill: url(#Degradado_sin_nombre_34-12);
      }
    </style>
    <linearGradient id="Degradado_sin_nombre_34" data-name="Degradado sin nombre 34" x1="141.55" y1="183.66" x2="260.82" y2="183.66" gradientUnits="userSpaceOnUse">
      <stop offset="0" stop-color="#e1d0e7"/>
      <stop offset="1" stop-color="#694b99"/>
    </linearGradient>
    <linearGradient id="Degradado_sin_nombre_34-2" data-name="Degradado sin nombre 34" x1="170.89" y1="50.32" x2="251.19" y2="50.32" xlink:href="#Degradado_sin_nombre_34"/>
    <linearGradient id="Degradado_sin_nombre_34-3" data-name="Degradado sin nombre 34" x1="251.19" y1="119.36" x2="290.7" y2="119.36" xlink:href="#Degradado_sin_nombre_34"/>
    <linearGradient id="Degradado_sin_nombre_34-4" data-name="Degradado sin nombre 34" x1="128.93" y1="117.63" x2="223.88" y2="117.63" xlink:href="#Degradado_sin_nombre_34"/>
    <linearGradient id="Degradado_sin_nombre_34-5" data-name="Degradado sin nombre 34" x1="103.7" y1="24.86" x2="201.17" y2="24.86" xlink:href="#Degradado_sin_nombre_34"/>
    <linearGradient id="Degradado_sin_nombre_34-6" data-name="Degradado sin nombre 34" x1="93.1" y1="106.02" x2="152.43" y2="106.02" xlink:href="#Degradado_sin_nombre_34"/>
    <linearGradient id="Degradado_sin_nombre_34-7" data-name="Degradado sin nombre 34" x1="53.12" y1="37.45" x2="112.84" y2="37.45" xlink:href="#Degradado_sin_nombre_34"/>
    <linearGradient id="Degradado_sin_nombre_34-8" data-name="Degradado sin nombre 34" x1="37.11" y1="118.31" x2="102.12" y2="118.31" xlink:href="#Degradado_sin_nombre_34"/>
    <linearGradient id="Degradado_sin_nombre_34-9" data-name="Degradado sin nombre 34" x1="43.02" y1="210.42" x2="145.23" y2="210.42" xlink:href="#Degradado_sin_nombre_34"/>
    <linearGradient id="Degradado_sin_nombre_34-10" data-name="Degradado sin nombre 34" x1="132.11" y1="229.41" x2="228.3" y2="229.41" xlink:href="#Degradado_sin_nombre_34"/>
    <linearGradient id="Degradado_sin_nombre_34-11" data-name="Degradado sin nombre 34" x1="103.38" y1="182.29" x2="132.7" y2="182.29" xlink:href="#Degradado_sin_nombre_34"/>
    <linearGradient id="Degradado_sin_nombre_34-12" data-name="Degradado sin nombre 34" x1="87.42" y1="52.08" x2="103.49" y2="52.08" xlink:href="#Degradado_sin_nombre_34"/>
    <linearGradient id="Degradado_sin_nombre_34-13" data-name="Degradado sin nombre 34" x1="231.76" y1="111.27" x2="247.96" y2="111.27" xlink:href="#Degradado_sin_nombre_34"/>
  </defs>
  <path class="cls-6" d="m231.45,132.72c.89.62,3.25,2.1,6.62,2.21,3.5.11,6.03-1.31,6.94-1.89,4.31,7.03,9.4,17.11,12.62,29.97,5.14,20.53,2.99,37.98.95,47.95-2.31,3.77-6.02,8.9-11.67,13.88-5.62,4.94-11.13,7.96-15.14,9.78-12.22-1.15-29.41-4.1-48.58-11.99-18.41-7.58-32.28-17.08-41.64-24.6.87-1.72,1.81-3.94,2.52-6.62.75-2.82,1.02-5.33,1.1-7.31,11.47-1.38,32.71-5.51,54.42-20.13,15.73-10.59,25.88-22.75,31.86-31.23Z"/>
  <path class="cls-9" d="m228.93,91.6c1.97.72,3.67-2.88,7.89-3.79,2.36-.5,4.5.05,5.99.63,1.28-2.52,2.95-6.16,4.42-10.73,2.42-7.54,2.96-13.51,3.47-19.56.5-5.95.8-14.02,0-23.66-2.98-3.82-7.09-8.33-12.62-12.62-9.99-7.76-19.99-11.26-26.5-12.93-6.64,3.8-15.13,9.54-23.66,17.98-7.76,7.67-13.25,15.3-17.03,21.45v3.15c2.87,1.34,7.01,3.29,11.99,5.68,11.41,5.48,17.11,8.22,19.56,9.78,7.21,4.61,7.27,5.64,19.24,14.83,1.66,1.27,3.12,2.37,4.42,4.42,1.87,2.95,1.46,4.86,2.84,5.36Z"/>
  <path class="cls-5" d="m254.79,38.92c6.78,6.85,32.74,34.69,35.65,79.18,2.83,43.37-18.12,73.77-23.97,81.7.87-12.4.63-29.04-3.79-47.95-2.41-10.32-5.6-19.29-8.83-26.81,1.07-2.78,2.53-7.69,2.21-13.88-.4-7.56-3.25-13.1-4.87-15.77,1.55-7.35,2.87-15.7,3.61-24.92.95-11.81.73-22.45,0-31.54Z"/>
  <path class="cls-8" d="m141.55,173.3c11.24-1.6,31.64-6.07,52.36-20.5,14.67-10.21,24.22-21.75,29.97-29.97-.72-2.21-1.48-5.34-1.58-9.15-.11-4.58.78-8.3,1.58-10.73-5.1-6.51-12.49-14.53-22.71-22.08-14.86-10.98-29.38-16.26-39.12-18.93-7.1,9.95-15.49,23.86-22.08,41.64-8.44,22.78-10.65,43.07-11.04,57.1,3.7,1.52,6.2,3.67,7.57,5.05,2.83,2.83,4.31,5.77,5.05,7.57Z"/>
  <path class="cls-1" d="m159.53,48.7c3.57-6.1,8.29-13.06,14.51-20.19,9.48-10.87,19.27-18.49,27.13-23.66-9.49-1.93-20.86-3.5-33.75-3.79-17.88-.39-33.22,1.8-45.11,4.42-2.96,3.53-6.13,7.83-9.15,12.93-4.75,8.05-7.65,15.64-9.46,21.77.57-.18,2.88-.85,5.36.32,3.29,1.54,4.03,4.99,4.1,5.36,7.9-1.45,18.71-2.44,31.23-.63,5.68.82,10.76,2.08,15.14,3.47Z"/>
  <path class="cls-3" d="m152.43,58.29c-7.45,11.29-16.46,27.47-23.19,48.24-6.68,20.63-8.86,38.9-9.46,52.36-.89-.34-2.31-.76-4.1-.79-1.95-.03-3.49.43-4.42.79-5.1-8.66-11.2-21.26-14.88-37.36-5.26-23.01-3.14-42.49-.93-54.12,2.12-.35,5.56-1.19,9.19-3.47,4.56-2.87,7.05-6.54,8.2-8.52,7.24-1.98,19.09-3.95,32.18,0,2.71.82,5.18,1.8,7.41,2.86Z"/>
  <path class="cls-2" d="m97.49,38.61c.78-3.29,1.96-7.09,3.79-11.15,3.5-7.77,7.99-13.46,11.57-17.24-8.23,2.92-21.43,8.76-34.49,20.4-14,12.48-21.49,25.95-25.24,34.07,2.62-2.22,6.75-5.18,12.41-7.36,4.59-1.77,8.71-2.46,11.78-2.73.27-1.53,1.48-7.22,6.73-11.57,5.66-4.68,12.01-4.5,13.46-4.42Z"/>
  <path class="cls-4" d="m78.56,59.64c.91,1.49,2.67,3.91,5.68,5.89,1.89,1.24,3.69,1.92,5.05,2.31-2.56,9.34-4.89,22.01-4.42,37.01.87,27.78,10.9,48.74,17.24,59.72-.6.12-5.14,1.12-7.36,5.47-1.57,3.09-1.04,6.03-.84,6.94-6.15-.75-13.02-1.99-20.4-4-13.39-3.65-24.39-8.73-32.81-13.46-2.26-9.67-4.3-23.12-3.36-39.12,1.2-20.55,6.82-36.77,11.36-47.11,3.83-2.55,8.46-5.26,13.88-7.78,5.85-2.71,11.29-4.58,15.98-5.89Z"/>
  <path class="cls-12" d="m43.02,167.52c6.18,3.87,14.63,8.35,25.24,11.78,9.5,3.07,18.04,4.45,24.82,5.05.84,2.57,4.08,11.46,13.46,17.45,8.38,5.35,16.69,5.22,19.56,5.05.51,6.04,1.89,14.51,5.68,23.97,4.08,10.19,9.42,17.67,13.46,22.5-11.73-1.45-31.15-5.49-51.1-18.3-35.01-22.46-47.52-56.38-51.1-67.51Z"/>
  <path class="cls-7" d="m140.81,234.4c3.28,7.88,7.02,14.48,10.51,19.77,9.15,1.08,22.75,1.63,38.69-1.68,17.15-3.57,30.13-10.17,38.27-15.14-12.78-.16-32.07-1.94-53.84-10.09-15.53-5.82-34.29-24.84-37.01-23.34-.13.07-1.27.76-2.94,1.26-1.21.36-1.51.27-1.8.42-2.3,1.24,2.39,15.06,8.11,28.81Z"/>
  <path class="cls-11" d="m132.4,180.56c.18.82,1.34,6.65-2.52,11.04-4.91,5.57-13.22,3.51-13.96,3.31-6.85-1.82-14.17-9.11-12.22-16.56,1.64-6.28,9.12-9.77,15.46-9.15,6.21.61,11.92,5.21,13.25,11.36Z"/>
  <path class="cls-13" d="m103.38,50.59c.59,2.53-1.28,4.7-1.58,5.05-2.12,2.47-5.34,2.52-6.83,2.54-1.72.03-5.6.08-7.05-2.54-1.49-2.7.78-6.08.95-6.31,2.03-2.92,5.86-3.79,8.83-3.15.87.19,4.93,1.2,5.68,4.42Z"/>
  <path class="cls-10" d="m239.97,122.83c-2.92,0-4.89-3.03-5.99-4.73-2.08-3.2-2.2-6.39-2.21-7.26-.02-1.72-.08-7.62,4.42-10.09,2.81-1.55,6.69-1.36,9.15.63,3.4,2.76,2.71,7.88,2.21,11.67-.45,3.4-1.55,5.15-1.86,5.62-.69,1.06-2.74,4.17-5.71,4.16Z"/>
</svg>